<svg width="60" height="60" viewBox="0 0 60 60" fill="none" xmlns="http://www.w3.org/2000/svg">
<circle cx="30" cy="30" r="30" fill="#C8F0E4"/>
<g clip-path="url(#clip0_105_1234)">
<path d="M45.5513 24.5211H40.6305C40.8576 23.7803 40.9787 22.979 40.9787 22.1625C40.9787 17.6872 37.4054 14.0435 32.9539 13.9225C31.6972 11.7453 29.3807 10.3846 26.8218 10.3846C23.7785 10.3846 21.0985 12.335 20.1295 15.1472C16.7076 15.6008 13.8459 18.9572 13.8459 22.7522V33.9404C13.8459 36.1781 16.0111 38.9751 18.57 39.6706V44.2064C18.57 46.3533 20.3112 48.0769 22.4461 48.0769H35.9216C36.7241 48.0769 37.466 47.835 38.0868 47.4117C39.1164 46.7162 39.7977 45.5369 39.7977 44.1913V43.4051H43.1439C46.5052 43.4051 49.2306 40.6685 49.2306 37.3271V28.1951C49.2306 26.1691 47.5802 24.5211 45.5513 24.5211V24.5211ZM43.1439 41.0616H39.7977V39.8823H43.1439C44.552 39.8823 45.7027 38.7332 45.7027 37.3271V29.2232C45.7027 28.5731 45.1728 28.0439 44.5217 28.0439H39.7977V26.8646H45.5513C46.2781 26.8646 46.8837 27.4543 46.8837 28.1951V37.3271C46.8837 39.3834 45.2031 41.0616 43.1439 41.0616ZM19.8569 22.1625C19.1453 22.1625 18.57 22.7371 18.57 23.4477V37.1306C17.283 36.4502 16.208 34.8778 16.208 33.9253V22.7371C16.208 20.2424 18.2217 17.4302 20.8108 17.4302C20.8563 17.4302 20.9622 17.4453 21.0077 17.4453C21.583 17.4755 22.0827 17.0673 22.2038 16.5079C22.6429 14.3156 24.5961 12.7281 26.8218 12.7281C28.6993 12.7281 30.4103 13.8469 31.1522 15.5705C31.349 16.0241 31.9092 16.2962 32.4089 16.266C32.5149 16.266 32.6057 16.266 32.7117 16.266C35.967 16.266 38.6167 18.9119 38.6167 22.1474H19.8569V22.1625ZM39.7977 37.5237V30.4025H43.3407V37.3271C43.3407 37.433 43.2499 37.5237 43.1439 37.5237H39.7977ZM37.4357 44.1913C37.4357 45.0228 36.7544 45.7183 35.9065 45.7183H22.4461C21.6133 45.7183 20.9168 45.038 20.9168 44.1913V24.5211H37.4357V44.2064V44.1913ZM36.2547 43.3597C36.2547 44.0099 35.7248 44.539 35.0737 44.539H24.5658C23.2031 44.539 22.113 43.4353 22.113 42.0897V26.8797C22.113 26.2296 22.6429 25.7004 23.294 25.7004C23.945 25.7004 24.475 26.2296 24.475 26.8797V42.0897C24.475 42.0897 24.5204 42.1955 24.5658 42.1955H35.0888C35.7399 42.1955 36.2698 42.7247 36.2698 43.3748L36.2547 43.3597ZM33.8927 26.8646H31.5307V25.6853H35.0737V41.0011H33.8927V26.8797V26.8646ZM26.8218 25.6853H30.3648V41.0011H29.1838V26.8797H26.8218V25.7004V25.6853Z" fill="white"/>
</g>
<defs>
<clipPath id="clip0_105_1234">
<rect width="35.3846" height="37.6923" fill="white" transform="translate(13.8459 10.3846)"/>
</clipPath>
</defs>
</svg>
