<svg width="60" height="60" viewBox="0 0 60 60" fill="none" xmlns="http://www.w3.org/2000/svg">
<circle cx="30" cy="30" r="30" fill="#C8F0E4"/>
<g clip-path="url(#clip0_105_1230)">
<path d="M14.4975 43.1401C14.1696 43.1401 13.906 42.8772 13.906 42.5526V30.6257C13.906 30.3011 14.1696 30.0382 14.4975 30.0382C14.8253 30.0382 15.0866 30.3011 15.0866 30.6257V42.5526C15.0866 42.8772 14.823 43.1401 14.4975 43.1401V43.1401Z" fill="white"/>
<path d="M24.7104 43.1401C24.3848 43.1401 24.1189 42.8772 24.1189 42.5526V30.6257C24.1189 30.3011 24.3848 30.0382 24.7104 30.0382C25.0359 30.0382 25.2995 30.3011 25.2995 30.6257V42.5526C25.2995 42.8772 25.0336 43.1401 24.7104 43.1401Z" fill="white"/>
<path d="M19.6028 45.3142C19.2796 45.3142 19.0137 45.0513 19.0137 44.7267V42.5754C19.0137 42.2485 19.2796 41.9833 19.6028 41.9833C19.9261 41.9833 20.1943 42.2485 20.1943 42.5754V44.7267C20.1943 45.0513 19.9307 45.3142 19.6028 45.3142Z" fill="white"/>
<path d="M19.6028 41.613C19.2796 41.613 19.0137 41.3478 19.0137 41.0277V28.4973C19.0137 28.1727 19.2796 27.9098 19.6028 27.9098C19.9261 27.9098 20.1943 28.1727 20.1943 28.4973V41.0277C20.1943 41.3478 19.9307 41.613 19.6028 41.613Z" fill="white"/>
<path d="M19.6051 43.1606C18.8531 43.1606 18.2388 42.5502 18.2388 41.8003C18.2388 41.0505 18.8531 40.4378 19.6051 40.4378C20.357 40.4378 20.9714 41.0505 20.9714 41.8003C20.9714 42.5502 20.357 43.1606 19.6051 43.1606ZM19.6051 41.6152C19.5019 41.6152 19.4194 41.6975 19.4194 41.8003C19.4194 41.9032 19.5019 41.9832 19.6051 41.9832C19.7082 41.9832 19.7908 41.9009 19.7908 41.8003C19.7908 41.6998 19.7082 41.6152 19.6051 41.6152Z" fill="white"/>
<path d="M19.6052 47.3077C13.6906 47.3077 8.87646 42.5045 8.87646 36.604C8.87646 30.7034 13.6906 25.9003 19.6052 25.9003C25.5197 25.9003 30.3339 30.7012 30.3339 36.604C30.3339 42.5068 25.5197 47.3077 19.6052 47.3077ZM19.6052 27.0753C14.3417 27.0753 10.0571 31.3527 10.0571 36.604C10.0571 41.8553 14.3394 46.1303 19.6052 46.1303C24.871 46.1303 29.151 41.8553 29.151 36.604C29.151 31.3527 24.8687 27.0753 19.6052 27.0753Z" fill="white"/>
<path d="M19.6053 45.3142C14.7911 45.3142 10.8733 41.4095 10.8733 36.604C10.8733 31.7985 14.7911 27.8915 19.6053 27.8915C24.4194 27.8915 28.3373 31.8008 28.3373 36.604C28.3373 41.4072 24.4217 45.3142 19.6053 45.3142ZM19.6053 29.0711C15.4422 29.0711 12.0516 32.4478 12.0516 36.604C12.0516 40.7602 15.4422 44.1391 19.6053 44.1391C23.7684 44.1391 27.1544 40.7579 27.1544 36.604C27.1544 32.4501 23.7684 29.0711 19.6053 29.0711V29.0711Z" fill="white"/>
<path d="M30.5129 27.5646C30.3639 27.5646 30.2103 27.5051 30.0957 27.3908L21.6434 18.955C21.4118 18.7263 21.4118 18.356 21.6434 18.1274C21.8749 17.8942 22.2463 17.8942 22.4801 18.1274L30.9301 26.5587C31.1617 26.7873 31.1617 27.1599 30.9301 27.3908C30.8155 27.5029 30.6642 27.5646 30.5129 27.5646Z" fill="white"/>
<path d="M37.7365 20.3564C37.5852 20.3564 37.4339 20.2992 37.3193 20.1826L28.867 11.7513C28.6378 11.5204 28.6378 11.1501 28.867 10.9214C29.0985 10.6883 29.4699 10.6883 29.6992 10.9214L38.1515 19.3505C38.383 19.5836 38.383 19.954 38.1515 20.1872C38.0368 20.3015 37.8878 20.3609 37.7365 20.3609V20.3564Z" fill="white"/>
<path d="M35.6664 25.4979C35.5151 25.4979 35.3615 25.443 35.2469 25.3242L33.7247 23.7993C33.4909 23.573 33.4909 23.2003 33.7247 22.9694C33.9539 22.7385 34.3253 22.7385 34.5569 22.9694L36.0836 24.492C36.3129 24.7229 36.3129 25.0933 36.0836 25.3242C35.9667 25.443 35.8177 25.4979 35.6664 25.4979Z" fill="white"/>
<path d="M33.0439 22.878C32.8926 22.878 32.7413 22.8231 32.6267 22.7065L23.7457 13.8477C23.5141 13.6191 23.5141 13.2464 23.7457 13.0178C23.9772 12.7892 24.3486 12.7892 24.5824 13.0178L33.4588 21.8766C33.6904 22.1075 33.6904 22.4779 33.4588 22.7065C33.3442 22.8208 33.1952 22.878 33.0416 22.878H33.0439Z" fill="white"/>
<path d="M33.5938 24.2017C33.2271 24.2017 32.8832 24.0599 32.6264 23.7993C32.3697 23.5432 32.2275 23.2026 32.2275 22.8368C32.2275 22.471 32.372 22.1304 32.6264 21.8767C33.1422 21.3623 34.0409 21.36 34.559 21.8767C34.818 22.1327 34.9602 22.4756 34.9602 22.8368C34.9602 23.198 34.8157 23.5455 34.559 23.7993C34.3022 24.0599 33.9583 24.2017 33.5961 24.2017H33.5938ZM33.5938 22.6517C33.5572 22.6517 33.5067 22.6608 33.4586 22.7065C33.415 22.7522 33.4059 22.8025 33.4059 22.8368C33.4059 22.8666 33.4127 22.9214 33.4586 22.9694C33.5411 23.0517 33.6191 23.0723 33.7245 22.9694C33.7727 22.9214 33.7772 22.8666 33.7772 22.8368C33.7772 22.8025 33.7681 22.7522 33.7245 22.7065C33.6741 22.6608 33.6214 22.6517 33.5938 22.6517Z" fill="white"/>
<path d="M29.9076 29.869C27.0421 29.869 24.3507 28.7557 22.3219 26.7347C18.1404 22.5602 18.1404 15.7681 22.3219 11.5959C24.3507 9.5749 27.0421 8.46155 29.9076 8.46155C32.7732 8.46155 35.4669 9.5749 37.4934 11.5936C39.5222 13.6168 40.6386 16.3053 40.6386 19.1607C40.6386 22.0161 39.5222 24.7092 37.4934 26.7324C35.4669 28.7557 32.7732 29.8667 29.9076 29.8667V29.869ZM29.9076 9.63891C27.3584 9.63891 24.9628 10.6288 23.1586 12.4303C19.438 16.143 19.438 22.1876 23.1586 25.9003C24.9628 27.6995 27.3584 28.6916 29.9076 28.6916C32.4568 28.6916 34.8571 27.6995 36.6612 25.9003C38.4654 24.1033 39.458 21.7075 39.458 19.163C39.458 16.6185 38.4654 14.2295 36.6612 12.4303C34.8593 10.6288 32.4591 9.63891 29.9076 9.63891V9.63891Z" fill="white"/>
<path d="M29.9077 27.8755C27.5785 27.8755 25.3846 26.9725 23.7341 25.3264C22.0858 23.6781 21.178 21.4926 21.178 19.1653C21.178 16.838 22.0858 14.6524 23.7341 13.0087C25.3824 11.3649 27.5762 10.4551 29.9077 10.4551C32.2391 10.4551 34.433 11.3627 36.0836 13.0087C37.7318 14.6524 38.6397 16.8403 38.6397 19.1653C38.6397 21.4903 37.7318 23.6804 36.0836 25.3264C34.433 26.9725 32.2414 27.8755 29.9077 27.8755V27.8755ZM29.9077 11.6324C27.8926 11.6324 25.9944 12.4143 24.5708 13.8386C23.1449 15.2605 22.3563 17.1512 22.3563 19.1653C22.3563 21.1794 23.1449 23.07 24.5708 24.4943C25.9944 25.9163 27.8926 26.7027 29.9077 26.7027C31.9227 26.7027 33.8232 25.9185 35.2514 24.4943C36.675 23.0723 37.4613 21.1794 37.4613 19.1653C37.4613 17.1512 36.675 15.2628 35.2514 13.8386C33.8232 12.4166 31.9273 11.6324 29.9077 11.6324V11.6324Z" fill="white"/>
<path d="M39.5909 45.0216C39.4419 45.0216 39.2883 44.9644 39.1736 44.8501C38.9444 44.6192 38.9444 44.2489 39.1736 44.0157L47.6259 35.5821C47.8575 35.3535 48.2289 35.3535 48.4581 35.5821C48.6897 35.813 48.6897 36.1856 48.4581 36.4188L40.0081 44.8524C39.8935 44.9667 39.7445 45.0239 39.5932 45.0239L39.5909 45.0216Z" fill="white"/>
<path d="M32.3695 37.8156C32.2182 37.8156 32.0646 37.7585 31.95 37.6419C31.7185 37.4156 31.7185 37.0429 31.95 36.812L40.4023 28.3784C40.6339 28.1475 41.0052 28.1475 41.2391 28.3784C41.4706 28.6093 41.4706 28.982 41.2391 29.2106L32.7868 37.6419C32.6721 37.7562 32.5208 37.8156 32.3718 37.8156H32.3695Z" fill="white"/>
<path d="M44.446 32.9713C44.297 32.9713 44.1457 32.9119 44.0311 32.7976C43.7995 32.569 43.7995 32.1895 44.0311 31.9609L45.5556 30.4406C45.7871 30.2097 46.1585 30.2097 46.3923 30.4406C46.6216 30.6692 46.6216 31.0418 46.3923 31.2727L44.8655 32.7953C44.7486 32.9096 44.5973 32.9691 44.446 32.9691V32.9713Z" fill="white"/>
<path d="M34.4716 42.9275C34.3226 42.9275 34.169 42.868 34.0521 42.7537C33.8228 42.5228 33.8228 42.1502 34.0521 41.9216L42.9331 33.0627C43.1646 32.8318 43.536 32.8318 43.7675 33.0627C43.9991 33.2936 43.9991 33.664 43.7675 33.8926L34.8911 42.7537C34.7742 42.868 34.6229 42.9275 34.4739 42.9275H34.4716Z" fill="white"/>
<path d="M43.8984 34.2904C43.5339 34.2904 43.1924 34.151 42.9333 33.8903C42.6743 33.6343 42.5344 33.2937 42.5344 32.9324C42.5344 32.5712 42.6766 32.2237 42.9333 31.9654C43.4491 31.451 44.3523 31.4556 44.8613 31.9654C45.3954 32.5004 45.3954 33.3645 44.8613 33.8926C44.6045 34.1532 44.2652 34.2927 43.8984 34.2927V34.2904ZM43.8984 32.745C43.8709 32.745 43.8159 32.7518 43.7678 32.7998C43.7219 32.8433 43.7127 32.8936 43.7127 32.9324C43.7127 32.9644 43.7219 33.017 43.7678 33.0605C43.8503 33.1405 43.9259 33.1679 44.0291 33.0605C44.1025 32.9873 44.1025 32.873 44.0291 32.7998C43.9855 32.7541 43.9328 32.745 43.8984 32.745Z" fill="white"/>
<path d="M40.2145 47.3077C37.3489 47.3077 34.6552 46.1944 32.6287 44.1711C30.6022 42.1502 29.488 39.4617 29.488 36.6063C29.488 33.7509 30.6022 31.0578 32.6287 29.0346C34.6552 27.0136 37.3489 25.9025 40.2145 25.9025C43.08 25.9025 45.7737 27.0159 47.8002 29.0346C49.8268 31.0578 50.9432 33.744 50.9432 36.6063C50.9432 39.4685 49.8268 42.1525 47.8002 44.1711C45.7714 46.1966 43.0777 47.3077 40.2122 47.3077H40.2145ZM40.2145 27.0753C37.6652 27.0753 35.2673 28.0698 33.4632 29.8667C31.659 31.6682 30.6664 34.0595 30.6664 36.604C30.6664 39.1485 31.659 41.5398 33.4632 43.3367C35.2673 45.1359 37.6652 46.1303 40.2145 46.1303C42.7637 46.1303 45.1639 45.1359 46.9681 43.3367C48.7722 41.5398 49.7626 39.1485 49.7626 36.604C49.7626 34.0595 48.7699 31.6682 46.9635 29.8667C45.1639 28.0698 42.7637 27.0753 40.2145 27.0753Z" fill="white"/>
<path d="M40.2145 45.3142C37.8853 45.3142 35.6914 44.4089 34.0409 42.7651C32.3926 41.1214 31.4871 38.9336 31.4871 36.6063C31.4871 34.279 32.3949 32.0888 34.0409 30.4451C35.6914 28.7991 37.8853 27.8961 40.2145 27.8961C42.5436 27.8961 44.7398 28.8014 46.3904 30.4451C48.0386 32.0888 48.9464 34.279 48.9464 36.6063C48.9464 38.9336 48.0386 41.1214 46.3904 42.7651C44.7398 44.4089 42.5459 45.3142 40.2145 45.3142ZM40.2145 29.0711C38.1994 29.0711 36.3012 29.853 34.8776 31.2796C33.4494 32.6992 32.6654 34.5922 32.6654 36.6063C32.6654 38.6204 33.4494 40.5087 34.8776 41.933C36.3035 43.3527 38.1994 44.1414 40.2145 44.1414C42.2295 44.1414 44.1277 43.3527 45.5559 41.933C46.9841 40.511 47.7681 38.6204 47.7681 36.6063C47.7681 34.5922 46.9841 32.6992 45.5559 31.2796C44.13 29.853 42.2318 29.0711 40.2145 29.0711V29.0711Z" fill="white"/>
</g>
<defs>
<clipPath id="clip0_105_1230">
<rect width="42.0667" height="38.8462" fill="white" transform="translate(8.87646 8.46155)"/>
</clipPath>
</defs>
</svg>
