<svg width="60" height="60" viewBox="0 0 60 60" fill="none" xmlns="http://www.w3.org/2000/svg">
<circle cx="30" cy="30" r="30" fill="#C8F0E4"/>
<g clip-path="url(#clip0_105_1194)">
<path d="M44.4795 38.6586L21.8004 16.0569C21.4239 15.6817 20.7964 15.6817 20.4199 16.0569C17.2069 19.2589 15.4373 23.5116 15.4373 28.0394C15.4373 37.3828 23.0681 45 32.4559 45C36.9993 45 41.2791 43.2364 44.492 40.0344C44.8685 39.6592 44.8685 39.0338 44.492 38.6586H44.4795ZM32.4434 43.0488C24.1349 43.0488 17.3826 36.3196 17.3826 28.0394C17.3826 24.3621 18.7004 20.8724 21.1227 18.1332L29.494 26.4759H23.2563C22.7166 26.4759 22.2774 26.9137 22.2774 27.4515C22.2774 27.9894 22.7166 28.4272 23.2563 28.4272H29.6948L24.5239 33.5804C24.1474 33.9556 24.1474 34.581 24.5239 34.9562C24.7122 35.1439 24.9632 35.2439 25.2142 35.2439C25.4652 35.2439 25.7162 35.1439 25.9045 34.9562L31.0754 29.803V37.1951C31.0754 37.733 31.5146 38.1708 32.0543 38.1708C32.594 38.1708 33.0333 37.733 33.0333 37.1951V29.9906L42.3835 39.309C39.6349 41.723 36.1458 43.0363 32.4434 43.0363V43.0488Z" fill="white"/>
<path d="M32.456 40.1344C25.7665 40.1344 20.3321 34.7186 20.3321 28.0519C20.3321 25.763 20.9722 23.5491 22.177 21.6354C22.4657 21.1851 22.3276 20.5722 21.8758 20.297C21.424 20.0094 20.8215 20.1469 20.5329 20.5972C19.1272 22.8236 18.3867 25.4002 18.3867 28.0519C18.3867 35.7942 24.6997 42.0857 32.4686 42.0857C35.1293 42.0857 37.7147 41.3477 39.9487 39.9468C40.4006 39.6591 40.5386 39.0588 40.25 38.6085C39.9613 38.1582 39.3589 38.0206 38.907 38.3083C36.9868 39.509 34.7653 40.1469 32.4686 40.1469L32.456 40.1344Z" fill="white"/>
</g>
<defs>
<clipPath id="clip0_105_1194">
<rect width="29.3309" height="29.2308" fill="white" transform="translate(15.4373 15.7692)"/>
</clipPath>
</defs>
</svg>
