<svg width="60" height="60" viewBox="0 0 60 60" fill="none" xmlns="http://www.w3.org/2000/svg">
<circle cx="30" cy="30" r="30" fill="#C8F0E4"/>
<g clip-path="url(#clip0_105_1189)">
<path d="M29.9721 53.7209C29.1525 53.7209 29.4841 8.1525 29.9721 8.1525C30.4601 8.1525 30.855 53.7209 29.9721 53.7209Z" fill="white"/>
<path d="M29.972 53.7209C29.972 53.7209 28.5713 47.332 23.9258 45.8256C23.9258 45.8256 27.7964 44.0178 30.0726 48.6376L29.9757 53.7248L29.972 53.7209Z" fill="white"/>
<path d="M29.9981 43.5929C29.9981 43.5929 23.5384 39.2589 23.7247 36.3387C23.9109 33.4185 30.5011 37.1306 29.9981 43.5929Z" fill="white"/>
<path d="M29.9981 38.2237C29.9981 38.2237 23.5384 33.8897 23.7247 30.9695C23.9109 28.0493 30.5011 31.7614 29.9981 38.2237Z" fill="white"/>
<path d="M29.9981 32.8546C29.9981 32.8546 23.5384 28.5206 23.7247 25.6004C23.9109 22.6802 30.5011 26.3922 29.9981 32.8546V32.8546Z" fill="white"/>
<path d="M30.0018 27.4816C30.0018 27.4816 23.7395 23.2789 23.9183 20.4475C24.0971 17.6123 30.4935 21.2162 30.0018 27.4816Z" fill="white"/>
<path d="M30.0131 22.1124C30.0131 22.1124 24.1047 18.1492 24.2723 15.4762C24.4399 12.8032 30.4713 16.2024 30.0131 22.1124V22.1124Z" fill="white"/>
<path d="M30.0017 43.5929C30.0017 43.5929 36.4615 39.2589 36.2752 36.3387C36.089 33.4185 29.4988 37.1306 30.0017 43.5929V43.5929Z" fill="white"/>
<path d="M30.0017 38.2237C30.0017 38.2237 36.4615 33.8897 36.2752 30.9695C36.089 28.0493 29.4988 31.7614 30.0017 38.2237V38.2237Z" fill="white"/>
<path d="M30.0017 32.8546C30.0017 32.8546 36.4615 28.5206 36.2752 25.6004C36.089 22.6802 29.4988 26.3922 30.0017 32.8546V32.8546Z" fill="white"/>
<path d="M29.9981 27.4816C29.9981 27.4816 36.2605 23.2789 36.0816 20.4475C35.9028 17.6123 29.5064 21.2162 29.9981 27.4816Z" fill="white"/>
<path d="M29.9909 22.1123C29.9909 22.1123 35.8993 18.1492 35.7317 15.4762C35.564 12.8032 29.5327 16.2024 29.9909 22.1123V22.1123Z" fill="white"/>
<path d="M29.9721 16.4651C27.5506 16.4651 27.0179 6.27908 30.1658 6.27908C33.3137 6.27908 32.0546 16.4651 29.9721 16.4651Z" fill="white"/>
</g>
<defs>
<clipPath id="clip0_105_1189">
<rect width="12.5581" height="47.4419" fill="white" transform="translate(23.7209 6.27908)"/>
</clipPath>
</defs>
</svg>
